<mxfile host="65bd71144e">
    <diagram id="3_NzdjM4D1sIUpUd0zuz" name="Page-1">
        <mxGraphModel dx="2561" dy="1656" grid="0" gridSize="10" guides="1" tooltips="1" connect="1" arrows="1" fold="1" page="0" pageScale="1" pageWidth="827" pageHeight="1169" math="0" shadow="0">
            <root>
                <mxCell id="0"/>
                <mxCell id="1" parent="0"/>
                <mxCell id="78" value="preparedGenericAPIServer" style="shape=umlLifeline;perimeter=lifelinePerimeter;container=1;collapsible=0;recursiveResize=0;rounded=0;shadow=0;strokeWidth=1;sketch=1;hachureGap=4;fontFamily=Lucida Console;fontSize=16;fillColor=#1ba1e2;fontColor=#ffffff;strokeColor=#1BA1E2;fillStyle=solid;" vertex="1" parent="1">
                    <mxGeometry x="20" y="20" width="246" height="300" as="geometry"/>
                </mxCell>
                <mxCell id="79" value="" style="points=[];perimeter=orthogonalPerimeter;rounded=0;shadow=0;strokeWidth=1;sketch=0;hachureGap=4;fontFamily=Lucida Console;fontSize=20;fillColor=#1ba1e2;fontColor=#ffffff;strokeColor=#1BA1E2;" vertex="1" parent="78">
                    <mxGeometry x="118" y="65" width="10" height="190" as="geometry"/>
                </mxCell>
                <mxCell id="80" value="NonBlockingRun" style="verticalAlign=bottom;startArrow=oval;endArrow=block;startSize=8;shadow=0;strokeWidth=1;rounded=0;sketch=0;hachureGap=4;fontFamily=Lucida Console;fontSize=12;labelBackgroundColor=default;fontColor=#000000;strokeColor=#1BA1E2;" edge="1" parent="78">
                    <mxGeometry relative="1" as="geometry">
                        <mxPoint x="-15" y="68" as="sourcePoint"/>
                        <mxPoint x="118" y="68" as="targetPoint"/>
                    </mxGeometry>
                </mxCell>
                <mxCell id="90" value="" style="edgeStyle=none;orthogonalLoop=1;jettySize=auto;html=1;rounded=0;labelBackgroundColor=default;sketch=0;hachureGap=4;fontFamily=Lucida Console;fontSize=16;fontColor=#000000;endArrow=none;startSize=14;endSize=14;sourcePerimeterSpacing=8;targetPerimeterSpacing=8;curved=1;dashed=1;entryX=0.492;entryY=0.694;entryDx=0;entryDy=0;entryPerimeter=0;endFill=0;strokeColor=#1BA1E2;startArrow=classicThin;startFill=1;" edge="1" parent="78" target="110">
                    <mxGeometry width="120" relative="1" as="geometry">
                        <mxPoint x="127" y="256" as="sourcePoint"/>
                        <mxPoint x="1827" y="257" as="targetPoint"/>
                        <Array as="points"/>
                    </mxGeometry>
                </mxCell>
                <mxCell id="82" value="SecureServingInfo" style="shape=umlLifeline;perimeter=lifelinePerimeter;container=1;collapsible=0;recursiveResize=0;rounded=0;shadow=0;strokeWidth=1;sketch=1;hachureGap=4;fontFamily=Lucida Console;fontSize=16;fillColor=#1ba1e2;fontColor=#ffffff;strokeColor=#006EAF;fillStyle=solid;" vertex="1" parent="1">
                    <mxGeometry x="341" y="20" width="182" height="300" as="geometry"/>
                </mxCell>
                <mxCell id="83" value="" style="points=[];perimeter=orthogonalPerimeter;rounded=0;shadow=0;strokeWidth=1;sketch=0;hachureGap=4;fontFamily=Lucida Console;fontSize=20;fillColor=#1ba1e2;fontColor=#ffffff;strokeColor=#1BA1E2;" vertex="1" parent="82">
                    <mxGeometry x="86" y="78" width="10" height="178" as="geometry"/>
                </mxCell>
                <mxCell id="92" value="" style="points=[];perimeter=orthogonalPerimeter;rounded=0;shadow=0;strokeWidth=1;sketch=0;hachureGap=4;fontFamily=Lucida Console;fontSize=20;fillColor=#1ba1e2;fontColor=#ffffff;strokeColor=#1BA1E2;" vertex="1" parent="82">
                    <mxGeometry x="96" y="87" width="10" height="97" as="geometry"/>
                </mxCell>
                <mxCell id="97" value="" style="edgeStyle=orthogonalEdgeStyle;orthogonalLoop=1;jettySize=auto;html=1;rounded=0;labelBackgroundColor=default;sketch=0;hachureGap=4;fontFamily=Lucida Console;fontSize=8;fontColor=#000000;endArrow=classicThin;endFill=1;startSize=14;endSize=14;sourcePerimeterSpacing=8;targetPerimeterSpacing=8;strokeColor=#1BA1E2;" edge="1" parent="82">
                    <mxGeometry width="120" relative="1" as="geometry">
                        <mxPoint x="106" y="90" as="sourcePoint"/>
                        <mxPoint x="101" y="181" as="targetPoint"/>
                        <Array as="points">
                            <mxPoint x="161" y="90"/>
                            <mxPoint x="161" y="181"/>
                        </Array>
                    </mxGeometry>
                </mxCell>
                <mxCell id="100" value="tlsConfig" style="edgeLabel;html=1;align=center;verticalAlign=middle;resizable=0;points=[];fontSize=8;fontFamily=Lucida Console;fontColor=#000000;" vertex="1" connectable="0" parent="97">
                    <mxGeometry x="0.0216" y="-1" relative="1" as="geometry">
                        <mxPoint y="-16" as="offset"/>
                    </mxGeometry>
                </mxCell>
                <mxCell id="95" value="" style="edgeStyle=none;orthogonalLoop=1;jettySize=auto;html=1;rounded=0;labelBackgroundColor=default;sketch=0;hachureGap=4;fontFamily=Lucida Console;fontSize=16;fontColor=#000000;endArrow=block;startSize=14;endSize=14;sourcePerimeterSpacing=8;targetPerimeterSpacing=8;curved=1;endFill=1;strokeColor=#1BA1E2;" edge="1" parent="82" target="88">
                    <mxGeometry width="120" relative="1" as="geometry">
                        <mxPoint x="106" y="114" as="sourcePoint"/>
                        <mxPoint x="226" y="114" as="targetPoint"/>
                        <Array as="points"/>
                    </mxGeometry>
                </mxCell>
                <mxCell id="96" value="&lt;font style=&quot;font-size: 8px&quot;&gt;NewDynamicServingCertificateController&lt;/font&gt;" style="edgeLabel;html=1;align=center;verticalAlign=middle;resizable=0;points=[];fontSize=16;fontFamily=Lucida Console;fontColor=#000000;" vertex="1" connectable="0" parent="95">
                    <mxGeometry x="-0.2134" y="-1" relative="1" as="geometry">
                        <mxPoint x="19" y="-4" as="offset"/>
                    </mxGeometry>
                </mxCell>
                <mxCell id="103" value="" style="edgeStyle=none;orthogonalLoop=1;jettySize=auto;html=1;rounded=0;labelBackgroundColor=default;sketch=0;hachureGap=4;fontFamily=Lucida Console;fontSize=8;fontColor=#000000;endArrow=classicThin;endFill=1;startSize=14;endSize=14;sourcePerimeterSpacing=8;targetPerimeterSpacing=8;strokeColor=#1BA1E2;" edge="1" parent="82" target="101">
                    <mxGeometry width="120" relative="1" as="geometry">
                        <mxPoint x="108" y="162" as="sourcePoint"/>
                        <mxPoint x="228" y="162" as="targetPoint"/>
                        <Array as="points"/>
                    </mxGeometry>
                </mxCell>
                <mxCell id="104" value="&lt;span style=&quot;font-size: 16px&quot;&gt;run&lt;/span&gt;" style="edgeLabel;html=1;align=center;verticalAlign=middle;resizable=0;points=[];fontSize=8;fontFamily=Lucida Console;fontColor=#000000;" vertex="1" connectable="0" parent="103">
                    <mxGeometry x="-0.1528" y="-2" relative="1" as="geometry">
                        <mxPoint x="44" as="offset"/>
                    </mxGeometry>
                </mxCell>
                <mxCell id="118" value="" style="edgeStyle=none;orthogonalLoop=1;jettySize=auto;html=1;rounded=0;labelBackgroundColor=default;sketch=0;hachureGap=4;fontFamily=Lucida Console;fontSize=16;fontColor=#000000;startArrow=classicThin;startFill=1;endArrow=none;endFill=0;startSize=14;endSize=14;sourcePerimeterSpacing=8;targetPerimeterSpacing=8;strokeColor=#1BA1E2;dashed=1;" edge="1" parent="82">
                    <mxGeometry width="120" relative="1" as="geometry">
                        <mxPoint x="96" y="256" as="sourcePoint"/>
                        <mxPoint x="116" y="256" as="targetPoint"/>
                        <Array as="points"/>
                    </mxGeometry>
                </mxCell>
                <mxCell id="85" value="Server" style="verticalAlign=bottom;endArrow=block;entryX=0;entryY=0;shadow=0;strokeWidth=1;rounded=0;sketch=0;hachureGap=4;fontFamily=Lucida Console;fontSize=16;strokeColor=#1BA1E2;" edge="1" parent="1" source="79" target="83">
                    <mxGeometry relative="1" as="geometry">
                        <mxPoint x="175" y="100" as="sourcePoint"/>
                    </mxGeometry>
                </mxCell>
                <mxCell id="88" value="tlsconfig.go" style="shape=umlLifeline;perimeter=lifelinePerimeter;container=1;collapsible=0;recursiveResize=0;rounded=0;shadow=0;strokeWidth=1;sketch=1;hachureGap=4;fontFamily=Lucida Console;fontSize=16;fillColor=#1ba1e2;fontColor=#ffffff;strokeColor=#006EAF;fillStyle=solid;" vertex="1" parent="1">
                    <mxGeometry x="586" y="20" width="182" height="152" as="geometry"/>
                </mxCell>
                <mxCell id="89" value="" style="points=[];perimeter=orthogonalPerimeter;rounded=0;shadow=0;strokeWidth=1;sketch=0;hachureGap=4;fontFamily=Lucida Console;fontSize=20;fillColor=#1ba1e2;fontColor=#ffffff;strokeColor=#1BA1E2;fillStyle=solid;" vertex="1" parent="88">
                    <mxGeometry x="86" y="110" width="10" height="31" as="geometry"/>
                </mxCell>
                <mxCell id="101" value="DynamicServingCertificateController" style="shape=umlLifeline;perimeter=lifelinePerimeter;container=1;collapsible=0;recursiveResize=0;rounded=0;shadow=0;strokeWidth=1;sketch=1;hachureGap=4;fontFamily=Lucida Console;fontSize=16;fillColor=#1ba1e2;fontColor=#ffffff;strokeColor=#006EAF;fillStyle=solid;" vertex="1" parent="1">
                    <mxGeometry x="802" y="20" width="341" height="369" as="geometry"/>
                </mxCell>
                <mxCell id="102" value="" style="points=[];perimeter=orthogonalPerimeter;rounded=0;shadow=0;strokeWidth=1;sketch=0;hachureGap=4;fontFamily=Lucida Console;fontSize=20;fillColor=#1ba1e2;fontColor=#ffffff;strokeColor=#1BA1E2;fillStyle=solid;" vertex="1" parent="101">
                    <mxGeometry x="169" y="161" width="10" height="185" as="geometry"/>
                </mxCell>
                <mxCell id="106" value="secure_serving.go" style="shape=umlLifeline;perimeter=lifelinePerimeter;container=1;collapsible=0;recursiveResize=0;rounded=0;shadow=0;strokeWidth=1;sketch=1;hachureGap=4;fontFamily=Lucida Console;fontSize=16;fillColor=#1ba1e2;fontColor=#ffffff;strokeColor=#006EAF;fillStyle=solid;" vertex="1" parent="1">
                    <mxGeometry x="1189" y="20" width="200" height="369" as="geometry"/>
                </mxCell>
                <mxCell id="107" value="" style="points=[];perimeter=orthogonalPerimeter;rounded=0;shadow=0;strokeWidth=1;sketch=0;hachureGap=4;fontFamily=Lucida Console;fontSize=20;fillColor=#1ba1e2;fontColor=#ffffff;strokeColor=#1BA1E2;fillStyle=solid;" vertex="1" parent="106">
                    <mxGeometry x="97" y="220" width="10" height="35" as="geometry"/>
                </mxCell>
                <mxCell id="116" value="" style="edgeStyle=none;orthogonalLoop=1;jettySize=auto;html=1;rounded=0;labelBackgroundColor=default;sketch=0;hachureGap=4;fontFamily=Lucida Console;fontSize=16;fontColor=#000000;endArrow=classicThin;endFill=1;startSize=14;endSize=14;sourcePerimeterSpacing=8;targetPerimeterSpacing=8;strokeColor=#1BA1E2;entryX=0.498;entryY=0.694;entryDx=0;entryDy=0;entryPerimeter=0;" edge="1" parent="106" target="110">
                    <mxGeometry width="120" relative="1" as="geometry">
                        <mxPoint x="100" y="256" as="sourcePoint"/>
                        <mxPoint x="220" y="256" as="targetPoint"/>
                        <Array as="points"/>
                    </mxGeometry>
                </mxCell>
                <mxCell id="119" value="Server" style="edgeLabel;html=1;align=center;verticalAlign=middle;resizable=0;points=[];fontSize=16;fontFamily=Lucida Console;fontColor=#000000;" vertex="1" connectable="0" parent="116">
                    <mxGeometry x="-0.0254" relative="1" as="geometry">
                        <mxPoint as="offset"/>
                    </mxGeometry>
                </mxCell>
                <mxCell id="108" value="" style="edgeStyle=none;orthogonalLoop=1;jettySize=auto;html=1;rounded=0;labelBackgroundColor=default;sketch=0;hachureGap=4;fontFamily=Lucida Console;fontSize=16;fontColor=#000000;endArrow=classicThin;endFill=1;startSize=14;endSize=14;sourcePerimeterSpacing=8;targetPerimeterSpacing=8;strokeColor=#1BA1E2;" edge="1" parent="1" source="82" target="106">
                    <mxGeometry width="120" relative="1" as="geometry">
                        <mxPoint x="439" y="248" as="sourcePoint"/>
                        <mxPoint x="559" y="248" as="targetPoint"/>
                        <Array as="points">
                            <mxPoint x="675" y="240"/>
                            <mxPoint x="722" y="240"/>
                            <mxPoint x="1103" y="240"/>
                        </Array>
                    </mxGeometry>
                </mxCell>
                <mxCell id="109" value="RunServer" style="edgeLabel;html=1;align=center;verticalAlign=middle;resizable=0;points=[];fontSize=16;fontFamily=Lucida Console;fontColor=#000000;" vertex="1" connectable="0" parent="108">
                    <mxGeometry x="-0.2718" y="-1" relative="1" as="geometry">
                        <mxPoint as="offset"/>
                    </mxGeometry>
                </mxCell>
                <mxCell id="110" value="HttpServer" style="shape=umlLifeline;perimeter=lifelinePerimeter;container=1;collapsible=0;recursiveResize=0;rounded=0;shadow=0;strokeWidth=1;sketch=1;hachureGap=4;fontFamily=Lucida Console;fontSize=16;fillColor=#1ba1e2;fontColor=#ffffff;strokeColor=#006EAF;fillStyle=solid;" vertex="1" parent="1">
                    <mxGeometry x="1465" y="20" width="200" height="369" as="geometry"/>
                </mxCell>
                <mxCell id="111" value="" style="points=[];perimeter=orthogonalPerimeter;rounded=0;shadow=0;strokeWidth=1;sketch=0;hachureGap=4;fontFamily=Lucida Console;fontSize=20;fillColor=#1ba1e2;fontColor=#ffffff;strokeColor=#1BA1E2;fillStyle=solid;" vertex="1" parent="110">
                    <mxGeometry x="97" y="197" width="10" height="35" as="geometry"/>
                </mxCell>
                <mxCell id="112" value="" style="points=[];perimeter=orthogonalPerimeter;rounded=0;shadow=0;strokeWidth=1;sketch=0;hachureGap=4;fontFamily=Lucida Console;fontSize=20;fillColor=#1ba1e2;fontColor=#ffffff;strokeColor=#1BA1E2;fillStyle=solid;" vertex="1" parent="110">
                    <mxGeometry x="97" y="256" width="10" height="89" as="geometry"/>
                </mxCell>
                <mxCell id="113" value="" style="edgeStyle=none;orthogonalLoop=1;jettySize=auto;html=1;rounded=0;labelBackgroundColor=default;sketch=0;hachureGap=4;fontFamily=Lucida Console;fontSize=16;fontColor=#000000;endArrow=classicThin;endFill=1;startSize=14;endSize=14;sourcePerimeterSpacing=8;targetPerimeterSpacing=8;strokeColor=#1BA1E2;" edge="1" parent="110" source="82">
                    <mxGeometry width="120" relative="1" as="geometry">
                        <mxPoint x="-759.3333333333333" y="197" as="sourcePoint"/>
                        <mxPoint x="97" y="197" as="targetPoint"/>
                        <Array as="points">
                            <mxPoint x="-516.5" y="197"/>
                            <mxPoint x="-469.5" y="197"/>
                            <mxPoint x="-88.5" y="197"/>
                        </Array>
                    </mxGeometry>
                </mxCell>
                <mxCell id="114" value="new struct" style="edgeLabel;html=1;align=center;verticalAlign=middle;resizable=0;points=[];fontSize=16;fontFamily=Lucida Console;fontColor=#000000;" vertex="1" connectable="0" parent="113">
                    <mxGeometry x="-0.2718" y="-1" relative="1" as="geometry">
                        <mxPoint x="-95" as="offset"/>
                    </mxGeometry>
                </mxCell>
                <mxCell id="120" value="preParedGenericAPIService.NonBlockingRun" style="text;strokeColor=none;fillColor=none;html=1;align=center;verticalAlign=middle;whiteSpace=wrap;rounded=0;sketch=0;hachureGap=4;fillStyle=solid;fontFamily=Lucida Console;fontSize=40;fontColor=#409EFF;" vertex="1" parent="1">
                    <mxGeometry x="20" y="-85" width="985" height="30" as="geometry"/>
                </mxCell>
            </root>
        </mxGraphModel>
    </diagram>
</mxfile>